Coordinates
version=1
nRows=8
nColumns=40
inDegrees=yes

Units are S.I. units (second, meters, Newtons, ...)
If the header above contains a line with 'inDegrees', this indicates whether rotational values are in degrees (yes) or radians (no).

endheader
time	pelvis_tilt	pelvis_list	pelvis_rotation	pelvis_tx	pelvis_ty	pelvis_tz	hip_flexion_r	hip_adduction_r	hip_rotation_r	knee_angle_r	knee_angle_r_beta	ankle_angle_r	subtalar_angle_r	mtp_angle_r	hip_flexion_l	hip_adduction_l	hip_rotation_l	knee_angle_l	knee_angle_l_beta	ankle_angle_l	subtalar_angle_l	mtp_angle_l	lumbar_extension	lumbar_bending	lumbar_rotation	arm_flex_r	arm_add_r	arm_rot_r	elbow_flex_r	pro_sup_r	wrist_flex_r	wrist_dev_r	arm_flex_l	arm_add_l	arm_rot_l	elbow_flex_l	pro_sup_l	wrist_flex_l	wrist_dev_l
      1.31000000	     -0.21104799	      8.16287771	    -89.70636142	      0.20694245	      0.92562987	      1.32941019	      6.79430567	      2.14137374	      1.96751551	      0.51675792	      0.00901913	      4.03071483	      0.00000000	      0.00000000	     35.82673868	     -6.79996147	     -9.10461007	     62.39556505	      1.08900805	      1.16116454	      0.00000000	      0.00000000	     -3.25414391	      1.31831831	     -3.48039223	      0.00000000	      0.00000000	      0.00000000	      0.00000000	      0.00000000	      0.00000000	      0.00000000	      0.00000000	      0.00000000	      0.00000000	      0.00000000	      0.00000000	      0.00000000	      0.00000000
      1.32000000	     -0.03073254	      8.23986264	    -89.75585261	      0.20705268	      0.92568558	      1.34545119	      4.80178698	      1.96409187	      1.96349175	     -1.28775533	     -0.02247557	      4.14587852	      0.00000000	      0.00000000	     36.94115674	     -6.32464945	     -9.04451537	     59.28602125	      1.03473627	      1.78774359	      0.00000000	      0.00000000	     -3.19891551	      1.08205272	     -3.47225601	      0.00000000	      0.00000000	      0.00000000	      0.00000000	      0.00000000	      0.00000000	      0.00000000	      0.00000000	      0.00000000	      0.00000000	      0.00000000	      0.00000000	      0.00000000	      0.00000000
      1.33000000	      0.11344588	      8.30528842	    -89.78676905	      0.20714024	      0.92509955	      1.36157294	      2.82062257	      1.83272361	      2.01047790	     -3.00652271	     -0.05247372	      4.28887654	      0.00000000	      0.00000000	     37.87353318	     -5.84943819	     -8.88856241	     55.84373041	      0.97465696	      2.28919710	      0.00000000	      0.00000000	     -3.14558366	      0.84563229	     -3.53829265	      0.00000000	      0.00000000	      0.00000000	      0.00000000	      0.00000000	      0.00000000	      0.00000000	      0.00000000	      0.00000000	      0.00000000	      0.00000000	      0.00000000	      0.00000000	      0.00000000
      1.34000000	      0.22223796	      8.16573031	    -89.81799359	      0.20722619	      0.92425334	      1.37786355	      0.67736254	      1.74288839	      2.01107993	     -4.57524089	     -0.07985302	      4.43414151	     -0.00000000	     -0.00000000	     38.37524971	     -5.42358661	     -8.72794897	     52.03285876	      0.90814470	      2.56378738	      0.00000000	     -0.00000000	     -3.33623074	      0.65729933	     -3.67700710	      0.00000000	     -0.00000000	      0.00000000	      0.00000000	      0.00000000	     -0.00000000	     -0.00000000	      0.00000000	     -0.00000000	     -0.00000000	      0.00000000	      0.00000000	      0.00000000	      0.00000000
      1.35000000	      0.28070644	      7.99062222	    -89.83884301	      0.20731645	      0.92284444	      1.39419623	     -1.41750237	      1.71389932	      1.87090795	     -5.95317571	     -0.10390252	      4.71445431	      0.00000000	      0.00000000	     38.71181209	     -5.05527085	     -8.53912546	     47.99719292	      0.83770905	      2.69237929	     -0.00000000	      0.00000000	     -3.58277036	      0.53719426	     -3.81795299	      0.00000000	     -0.00000000	      0.00000000	      0.00000000	      0.00000000	     -0.00000000	     -0.00000000	      0.00000000	      0.00000000	      0.00000000	      0.00000000	      0.00000000	     -0.00000000	      0.00000000
      1.36000000	      0.18562304	      8.10668775	    -89.85620588	      0.20733164	      0.92038871	      1.41026070	     -3.03173796	      1.84964426	      1.95159757	     -6.99559144	     -0.12209610	      5.22430289	      0.00000000	      0.00000000	     39.30124225	     -4.85045717	     -8.23473790	     43.78457999	      0.76418508	      2.64967914	      0.00000000	      0.00000000	     -3.50230793	      0.56524850	     -3.85547679	      0.00000000	      0.00000000	      0.00000000	      0.00000000	      0.00000000	      0.00000000	      0.00000000	      0.00000000	      0.00000000	      0.00000000	      0.00000000	      0.00000000	      0.00000000	      0.00000000
      1.37000000	      0.05677416	      8.02576294	    -89.86820612	      0.20734500	      0.91775970	      1.42647253	     -4.75856651	      2.03047314	      1.89281140	     -7.81148387	     -0.13633611	      5.81781833	      0.00000000	      0.00000000	     39.51689699	     -4.67479268	     -7.86329633	     39.32708372	      0.68638710	      2.44861554	      0.00000000	      0.00000000	     -3.65502320	      0.63385302	     -3.96557858	      0.00000000	      0.00000000	      0.00000000	      0.00000000	      0.00000000	      0.00000000	      0.00000000	      0.00000000	      0.00000000	      0.00000000	      0.00000000	      0.00000000	      0.00000000	      0.00000000
      1.38000000	     -0.16511022	      8.06104300	    -89.88010129	      0.20734163	      0.91448234	      1.44261245	     -6.23238486	      2.30985525	      1.92512351	     -8.36252442	     -0.14595358	      6.59528662	      0.00000000	      0.00000000	     39.78931813	     -4.62254430	     -7.46793758	     34.77949649	      0.60701673	      2.17026081	      0.00000000	      0.00000000	     -3.68573198	      0.78682568	     -3.98701470	      0.00000000	      0.00000000	      0.00000000	      0.00000000	      0.00000000	      0.00000000	      0.00000000	      0.00000000	      0.00000000	      0.00000000	      0.00000000	      0.00000000	      0.00000000	      0.00000000
